<svg xmlns="http://www.w3.org/2000/svg" width="510.651" height="88.165" viewBox="0 0 510.651 88.165"><g stroke="#fff" stroke-width="3" stroke-miterlimit="10" fill="none"><path d="M261.208 58.313c-4.687 4.688-10.282 6.995-16.856 6.995h-19.516V17.465h19.516c6.574 0 12.17 2.378 16.856 7.064 4.687 4.686 7.064 10.28 7.064 16.856 0 6.576-2.378 12.242-7.064 16.927zm-7.764-16.856c0-2.31-.84-4.407-2.52-6.295-1.607-1.888-3.846-2.798-6.573-2.798h-4.686V50.48h1.47c3.426.07 6.853.14 9.65-2.657 1.89-1.89 2.66-4.128 2.66-6.366zM311.605 46.633c0 5.386-1.89 9.933-5.735 13.78-3.847 3.776-8.464 5.665-13.85 5.665-5.315 0-10.282-2.1-13.85-5.666-3.566-3.567-5.805-8.394-5.805-13.78V17.397h14.828v29.237c0 1.19.56 2.448 1.4 3.288.908.84 2.097 1.4 3.426 1.4 2.587 0 4.686-2.1 4.686-4.688V17.396h14.898v29.237zM344.937 17.396l-13.22 13.22c-.56.56-.91 1.4-1.12 2.238v.49c0 1.05.35 2.028 1.12 2.798l2.38 2.378c3.426 3.427 5.314 7.904 5.524 12.45v.77c0 4.827-1.817 9.653-5.524 13.29l-.21.21h-20.984l10.702-10.7c.77-.77 1.12-1.75 1.12-2.8v-.49c-.07-.838-.49-1.677-1.12-2.237l-2.31-2.378c-3.706-3.637-5.524-8.463-5.524-13.29v-.84c.21-4.476 2.028-9.022 5.456-12.45l2.657-2.658h21.054zM385.606 32.224h-10.422v33.084h-14.83V32.224h-10.42V17.396h35.672v14.828zM404.53 65.31H389.7V17.395h14.83V65.31zM456.82 71.114l-33.296-26.37v20.564h-14.898v-51.2l33.295 26.3V17.396h14.9v53.718zM497.213 39.5c-.35-2.45-1.75-4.688-3.638-6.296-1.89-1.608-4.267-2.588-6.994-2.588-3.007 0-5.525 1.05-7.623 3.147-2.1 2.1-3.147 4.617-3.147 7.624 0 3.987 2.238 7.415 5.386 9.304v-8.743h19.165v14.83h-4.266v9.302l-6.575.698c-.49 0-.91.07-1.19.07-.07 0-.21.07-.28.07h-1.468c-7.064 0-13.08-2.52-18.116-7.485-4.966-4.966-7.484-10.98-7.484-18.046 0-7.064 2.52-13.15 7.484-18.116 5.036-4.965 11.052-7.483 18.116-7.483 6.365 0 12.1 2.308 16.646 6.155 1.96 1.68 3.708 3.707 5.037 5.945L497.213 39.5z"/></g><g stroke="#fff" stroke-width="3" stroke-linecap="round" stroke-miterlimit="10" fill="none"><path d="M93.96 18.13L76.894 47.787v18.256h-14.83V47.787L45 18.13h17.137l7.345 12.73 7.345-12.73H93.96zM160.75 66.043h-16.928L133.19 46.948c-1.958 3.707-3.987 7.414-6.015 11.122l-6.016 10.98-12.103-22.103-10.56 19.096H81.57l27.63-49.87 11.96 21.962 11.89-21.963 27.7 49.87zM55.593 63.596c-1.96 1.12-3.987 2.027-6.086 2.658-2.028.7-4.127 1.12-6.225 1.398-.63.07-1.26.14-1.82.14-.63.07-1.258.07-1.817.07-1.4 0-2.798-.14-4.196-.28-1.4-.21-2.8-.49-4.198-.84-2.518-.7-4.967-1.538-7.345-2.867-2.308-1.26-4.616-2.938-6.575-4.826v6.993H2.502V18.06h14.83v15.878L34.817 16.52 45.31 27.014 26.076 46.248c5.596 7.205 15.318 8.324 22.033 4.547l7.483 12.8z"/></g><path stroke="#fff" stroke-width="3" stroke-miterlimit="10" fill="none" d="M193.988 2.96l31.465 5.186-21.66 19.204 10.488 2.852-21.637 21.865 10.704.79L167 82.266l11.02-20.026-10.582.09 18.434-29.937-9.12-1.435z"/></svg>