<?xml version="1.0" encoding="utf-8"?>
<!-- Generator: Adobe Illustrator 16.0.0, SVG Export Plug-In . SVG Version: 6.00 Build 0)  -->
<!DOCTYPE svg PUBLIC "-//W3C//DTD SVG 1.1//EN" "http://www.w3.org/Graphics/SVG/1.1/DTD/svg11.dtd">
<svg version="1.1" id="Layer_1" xmlns="http://www.w3.org/2000/svg" xmlns:xlink="http://www.w3.org/1999/xlink" x="0px" y="0px"
	 width="510.651px" height="88.165px" viewBox="0 0 510.651 88.165" enable-background="new 0 0 510.651 88.165"
	 xml:space="preserve">
<g>
	<path fill="none" stroke="#FFFFFF" stroke-width="3" stroke-miterlimit="10" d="M261.208,58.313
		c-4.687,4.688-10.282,6.995-16.856,6.995h-19.516V17.465h19.516c6.574,0,12.17,2.378,16.856,7.064
		c4.687,4.687,7.064,10.282,7.064,16.857C268.272,47.962,265.894,53.628,261.208,58.313z M253.444,41.457
		c0-2.309-0.84-4.407-2.519-6.295c-1.608-1.888-3.847-2.798-6.574-2.798h-4.687v18.116h1.469c3.427,0.07,6.854,0.141,9.652-2.657
		C252.674,45.934,253.444,43.695,253.444,41.457z"/>
	<path fill="none" stroke="#FFFFFF" stroke-width="3" stroke-miterlimit="10" d="M311.605,46.633c0,5.386-1.889,9.933-5.735,13.779
		c-3.847,3.777-8.464,5.666-13.85,5.666c-5.315,0-10.282-2.099-13.849-5.666c-3.567-3.567-5.806-8.394-5.806-13.779V17.396h14.828
		v29.237c0,1.189,0.56,2.448,1.399,3.288c0.909,0.839,2.098,1.398,3.427,1.398c2.588,0,4.687-2.099,4.687-4.687V17.396h14.898
		V46.633z"/>
	<path fill="none" stroke="#FFFFFF" stroke-width="3" stroke-miterlimit="10" d="M344.937,17.396l-13.22,13.22
		c-0.56,0.56-0.909,1.399-1.119,2.238v0.49c0,1.049,0.35,2.028,1.119,2.798l2.379,2.378c3.427,3.427,5.315,7.904,5.525,12.451v0.77
		c0,4.826-1.818,9.652-5.525,13.289l-0.21,0.211h-20.984l10.702-10.702c0.77-0.77,1.119-1.749,1.119-2.798v-0.49
		c-0.07-0.839-0.49-1.678-1.119-2.238l-2.309-2.378c-3.707-3.637-5.525-8.463-5.525-13.29v-0.839
		c0.21-4.477,2.028-9.023,5.456-12.451l2.657-2.658H344.937z"/>
	<path fill="none" stroke="#FFFFFF" stroke-width="3" stroke-miterlimit="10" d="M385.606,32.224h-10.422v33.084h-14.829V32.224
		h-10.422V17.396h35.673V32.224z"/>
	<path fill="none" stroke="#FFFFFF" stroke-width="3" stroke-miterlimit="10" d="M404.53,65.309h-14.829V17.396h14.829V65.309z"/>
	<path fill="none" stroke="#FFFFFF" stroke-width="3" stroke-miterlimit="10" d="M456.819,71.114l-33.295-26.37v20.564h-14.898
		V14.108l33.295,26.3V17.396h14.898V71.114z"/>
	<path fill="none" stroke="#FFFFFF" stroke-width="3" stroke-miterlimit="10" d="M497.213,39.499
		c-0.35-2.448-1.749-4.687-3.638-6.295c-1.889-1.608-4.267-2.588-6.994-2.588c-3.008,0-5.526,1.049-7.624,3.147
		c-2.099,2.099-3.147,4.617-3.147,7.624c0,3.987,2.238,7.415,5.386,9.304v-8.744h19.165v14.829h-4.267v9.303l-6.575,0.699
		c-0.489,0-0.909,0.07-1.189,0.07c-0.069,0-0.209,0.069-0.279,0.069h-1.469c-7.064,0-13.08-2.518-18.116-7.484
		c-4.966-4.966-7.484-10.98-7.484-18.046c0-7.064,2.519-13.149,7.484-18.116c5.036-4.966,11.052-7.484,18.116-7.484
		c6.365,0,12.101,2.308,16.646,6.155c1.959,1.679,3.708,3.707,5.037,5.945L497.213,39.499z"/>
</g>
<g>
	<path fill="none" stroke="#FFFFFF" stroke-width="3" stroke-linecap="round" stroke-miterlimit="10" d="M93.96,18.13L76.894,47.787
		v18.256H62.065V47.787L44.998,18.13h17.137l7.345,12.73l7.345-12.73H93.96z"/>
	<path fill="none" stroke="#FFFFFF" stroke-width="3" stroke-linecap="round" stroke-miterlimit="10" d="M160.75,66.043h-16.928
		L133.19,46.948c-1.958,3.707-3.987,7.414-6.015,11.122l-6.016,10.98l-12.102-22.103L98.497,66.043H81.57l27.629-49.871
		l11.961,21.963l11.891-21.963L160.75,66.043z"/>
	<path fill="none" stroke="#FFFFFF" stroke-width="3" stroke-linecap="round" stroke-miterlimit="10" d="M55.593,63.596
		c-1.959,1.119-3.987,2.027-6.086,2.658c-2.028,0.699-4.127,1.119-6.225,1.398c-0.63,0.07-1.26,0.14-1.819,0.14
		c-0.63,0.069-1.259,0.069-1.818,0.069c-1.399,0-2.798-0.139-4.196-0.279c-1.399-0.209-2.799-0.489-4.197-0.84
		c-2.518-0.699-4.967-1.538-7.345-2.867c-2.308-1.259-4.616-2.938-6.575-4.826v6.994H2.503V18.06h14.828v15.878l17.487-17.417
		L45.31,27.013L26.076,46.248c5.596,7.205,15.318,8.324,22.033,4.547L55.593,63.596z"/>
</g>
<polygon fill="none" stroke="#FFFFFF" stroke-width="3" stroke-miterlimit="10" points="193.988,2.96 225.453,8.146 203.792,27.35 
	214.281,30.202 192.643,52.067 203.347,52.858 166.999,82.265 178.021,62.239 167.438,62.331 185.872,32.393 176.751,30.958 "/>
</svg>
